<mxfile host="Electron" agent="Mozilla/5.0 (Windows NT 10.0; Win64; x64) AppleWebKit/537.36 (KHTML, like Gecko) draw.io/28.0.6 Chrome/138.0.7204.100 Electron/37.2.3 Safari/537.36" version="28.0.6">
  <diagram name="PÃ¡gina-1" id="7yqykXcrHkiU6ujIaoAH">
    <mxGraphModel dx="1007" dy="613" grid="0" gridSize="10" guides="1" tooltips="1" connect="1" arrows="1" fold="1" page="1" pageScale="1" pageWidth="827" pageHeight="1169" math="0" shadow="0">
      <root>
        <mxCell id="0" />
        <mxCell id="1" parent="0" />
        <mxCell id="nQjB9holka_pNffCF7FL-5" value="" style="edgeStyle=orthogonalEdgeStyle;rounded=0;orthogonalLoop=1;jettySize=auto;html=1;" edge="1" parent="1" source="nQjB9holka_pNffCF7FL-1" target="nQjB9holka_pNffCF7FL-4">
          <mxGeometry relative="1" as="geometry" />
        </mxCell>
        <mxCell id="nQjB9holka_pNffCF7FL-1" value="" style="rounded=0;whiteSpace=wrap;html=1;" vertex="1" parent="1">
          <mxGeometry x="153" y="113" width="120" height="60" as="geometry" />
        </mxCell>
        <mxCell id="nQjB9holka_pNffCF7FL-3" value="" style="edgeStyle=orthogonalEdgeStyle;rounded=0;orthogonalLoop=1;jettySize=auto;html=1;" edge="1" parent="1" source="nQjB9holka_pNffCF7FL-2" target="nQjB9holka_pNffCF7FL-1">
          <mxGeometry relative="1" as="geometry" />
        </mxCell>
        <mxCell id="nQjB9holka_pNffCF7FL-2" value="" style="ellipse;whiteSpace=wrap;html=1;aspect=fixed;fillColor=#60a917;fontColor=#ffffff;strokeColor=#2D7600;" vertex="1" parent="1">
          <mxGeometry x="68" y="124" width="38" height="38" as="geometry" />
        </mxCell>
        <mxCell id="nQjB9holka_pNffCF7FL-7" value="" style="edgeStyle=orthogonalEdgeStyle;rounded=0;orthogonalLoop=1;jettySize=auto;html=1;" edge="1" parent="1" source="nQjB9holka_pNffCF7FL-4" target="nQjB9holka_pNffCF7FL-6">
          <mxGeometry relative="1" as="geometry" />
        </mxCell>
        <mxCell id="nQjB9holka_pNffCF7FL-4" value="" style="rounded=0;whiteSpace=wrap;html=1;" vertex="1" parent="1">
          <mxGeometry x="337" y="113" width="120" height="60" as="geometry" />
        </mxCell>
        <mxCell id="nQjB9holka_pNffCF7FL-9" value="" style="edgeStyle=orthogonalEdgeStyle;rounded=0;orthogonalLoop=1;jettySize=auto;html=1;" edge="1" parent="1" source="nQjB9holka_pNffCF7FL-6" target="nQjB9holka_pNffCF7FL-8">
          <mxGeometry relative="1" as="geometry" />
        </mxCell>
        <mxCell id="nQjB9holka_pNffCF7FL-6" value="" style="rounded=0;whiteSpace=wrap;html=1;" vertex="1" parent="1">
          <mxGeometry x="337" y="213" width="120" height="60" as="geometry" />
        </mxCell>
        <mxCell id="nQjB9holka_pNffCF7FL-12" value="" style="edgeStyle=orthogonalEdgeStyle;rounded=0;orthogonalLoop=1;jettySize=auto;html=1;" edge="1" parent="1" source="nQjB9holka_pNffCF7FL-8" target="nQjB9holka_pNffCF7FL-10">
          <mxGeometry relative="1" as="geometry" />
        </mxCell>
        <mxCell id="nQjB9holka_pNffCF7FL-13" value="" style="edgeStyle=orthogonalEdgeStyle;rounded=0;orthogonalLoop=1;jettySize=auto;html=1;" edge="1" parent="1" source="nQjB9holka_pNffCF7FL-8" target="nQjB9holka_pNffCF7FL-11">
          <mxGeometry relative="1" as="geometry" />
        </mxCell>
        <mxCell id="nQjB9holka_pNffCF7FL-8" value="" style="rhombus;whiteSpace=wrap;html=1;" vertex="1" parent="1">
          <mxGeometry x="319" y="313" width="118" height="108" as="geometry" />
        </mxCell>
        <mxCell id="nQjB9holka_pNffCF7FL-28" style="edgeStyle=orthogonalEdgeStyle;rounded=0;orthogonalLoop=1;jettySize=auto;html=1;" edge="1" parent="1" source="nQjB9holka_pNffCF7FL-10">
          <mxGeometry relative="1" as="geometry">
            <mxPoint x="642.4117647058824" y="519.9411764705883" as="targetPoint" />
          </mxGeometry>
        </mxCell>
        <mxCell id="nQjB9holka_pNffCF7FL-10" value="" style="rounded=0;whiteSpace=wrap;html=1;" vertex="1" parent="1">
          <mxGeometry x="553" y="337" width="120" height="60" as="geometry" />
        </mxCell>
        <mxCell id="nQjB9holka_pNffCF7FL-30" style="edgeStyle=orthogonalEdgeStyle;rounded=0;orthogonalLoop=1;jettySize=auto;html=1;" edge="1" parent="1" source="nQjB9holka_pNffCF7FL-11">
          <mxGeometry relative="1" as="geometry">
            <mxPoint x="623.5882352941178" y="541" as="targetPoint" />
          </mxGeometry>
        </mxCell>
        <mxCell id="nQjB9holka_pNffCF7FL-11" value="" style="rounded=0;whiteSpace=wrap;html=1;" vertex="1" parent="1">
          <mxGeometry x="416" y="511" width="120" height="60" as="geometry" />
        </mxCell>
        <mxCell id="nQjB9holka_pNffCF7FL-14" value="" style="ellipse;whiteSpace=wrap;html=1;aspect=fixed;fillColor=#e51400;fontColor=#ffffff;strokeColor=#B20000;" vertex="1" parent="1">
          <mxGeometry x="625" y="522" width="38" height="38" as="geometry" />
        </mxCell>
        <UserObject label="recebe n1&lt;span style=&quot;white-space: pre;&quot;&gt;&#x9;&lt;/span&gt;" placeholders="1" name="Variable" id="nQjB9holka_pNffCF7FL-16">
          <mxCell style="text;html=1;strokeColor=none;fillColor=none;align=center;verticalAlign=middle;whiteSpace=wrap;overflow=hidden;" vertex="1" parent="1">
            <mxGeometry x="173" y="135" width="94" height="20" as="geometry" />
          </mxCell>
        </UserObject>
        <mxCell id="nQjB9holka_pNffCF7FL-19" style="edgeStyle=orthogonalEdgeStyle;rounded=0;orthogonalLoop=1;jettySize=auto;html=1;exitX=0.5;exitY=1;exitDx=0;exitDy=0;entryX=0.495;entryY=0.641;entryDx=0;entryDy=0;entryPerimeter=0;" edge="1" parent="1">
          <mxGeometry relative="1" as="geometry">
            <mxPoint x="374" y="245" as="sourcePoint" />
            <mxPoint x="374" y="238" as="targetPoint" />
          </mxGeometry>
        </mxCell>
        <mxCell id="nQjB9holka_pNffCF7FL-20" value="Media (n1 + n2) / 2" style="edgeLabel;html=1;align=center;verticalAlign=middle;resizable=0;points=[];" vertex="1" connectable="0" parent="nQjB9holka_pNffCF7FL-19">
          <mxGeometry x="0.4454" y="3" relative="1" as="geometry">
            <mxPoint x="24" y="3" as="offset" />
          </mxGeometry>
        </mxCell>
        <mxCell id="nQjB9holka_pNffCF7FL-21" value="Media &amp;gt;= 5" style="edgeLabel;html=1;align=center;verticalAlign=middle;resizable=0;points=[];" vertex="1" connectable="0" parent="1">
          <mxGeometry x="377" y="367" as="geometry" />
        </mxCell>
        <mxCell id="nQjB9holka_pNffCF7FL-22" value="&quot;#partiuestagio&quot;" style="edgeLabel;html=1;align=center;verticalAlign=middle;resizable=0;points=[];" vertex="1" connectable="0" parent="1">
          <mxGeometry x="613" y="367" as="geometry">
            <mxPoint x="-2" as="offset" />
          </mxGeometry>
        </mxCell>
        <mxCell id="nQjB9holka_pNffCF7FL-24" value="s" style="edgeLabel;html=1;align=center;verticalAlign=middle;resizable=0;points=[];" vertex="1" connectable="0" parent="1">
          <mxGeometry x="469" y="321" as="geometry">
            <mxPoint x="-29" y="35" as="offset" />
          </mxGeometry>
        </mxCell>
        <mxCell id="nQjB9holka_pNffCF7FL-25" value="&lt;span style=&quot;color: rgb(255, 255, 255); font-family: Helvetica; font-size: 11px; font-style: normal; font-variant-ligatures: normal; font-variant-caps: normal; font-weight: 400; letter-spacing: normal; orphans: 2; text-align: center; text-indent: 0px; text-transform: none; widows: 2; word-spacing: 0px; -webkit-text-stroke-width: 0px; white-space: nowrap; background-color: rgb(18, 18, 18); text-decoration-thickness: initial; text-decoration-style: initial; text-decoration-color: initial; display: inline !important; float: none;&quot;&gt;n&lt;/span&gt;" style="text;whiteSpace=wrap;html=1;" vertex="1" parent="1">
          <mxGeometry x="377" y="421" width="34" height="36" as="geometry" />
        </mxCell>
        <mxCell id="nQjB9holka_pNffCF7FL-26" value="&quot;#partiutentardenovo&quot;" style="edgeLabel;html=1;align=center;verticalAlign=middle;resizable=0;points=[];" vertex="1" connectable="0" parent="1">
          <mxGeometry x="503" y="543" as="geometry">
            <mxPoint x="-30" y="-2" as="offset" />
          </mxGeometry>
        </mxCell>
        <mxCell id="nQjB9holka_pNffCF7FL-27" value="Recebe n2" style="edgeLabel;html=1;align=center;verticalAlign=middle;resizable=0;points=[];" vertex="1" connectable="0" parent="1">
          <mxGeometry x="394" y="143" as="geometry" />
        </mxCell>
      </root>
    </mxGraphModel>
  </diagram>
</mxfile>
